# xmcd
#
# Track frame offsets:
#	150
#	13989
#	40710
#	56892
#	76148
#	94339
#	113411
#	130497
#	150253
#	167889
#	192939
#	210383
#	231579
#	249299
#	270952
#	290504
#	309353
#	327089
#	348822
#
# Disc length: 4805
#
# Revision: 2
# Processed by: cddbd v1.5.1PL0 Copyright (c) Steve Scherf et al.
# Submitted via: Audio-CD-Archiv 3.00.487
# Normalized: r1:TDELIM( - )
#
DISCID=fc12c313
DTITLE=Fetenhits - The Ballads - CD 1/2
DYEAR=1900
DGENRE=blues
TTITLE0=Queen - We are the champions
TTITLE1=John Miles - Music
TTITLE2=Marillion - Kayleigh
TTITLE3=Billy Idol - Sweet Sixteen
TTITLE4=Tina Turner - Private Dancer
TTITLE5=Slade - My oh my
TTITLE6=Alphaville - Forever young
TTITLE7=Icehouse - Hey little girl
TTITLE8=Den Harrow - Don't break my heart
TTITLE9=Toto - Rosanna
TTITLE10=Abba - Thank you for the music
TTITLE11=Mr. Mister - Broken Wings
TTITLE12=Cock Robin - The promise you made
TTITLE13=Allanah Miles - Block Velvet
TTITLE14=Roxette - It must have been love
TTITLE15=Gary Moore - Still got the blues
TTITLE16=Bangels - Eternal Flame
TTITLE17=Uriah Heep - Lady in Black
TTITLE18=Thom Page - Maybe
EXTD=
EXTT0=
EXTT1=
EXTT2=
EXTT3=
EXTT4=
EXTT5=
EXTT6=
EXTT7=
EXTT8=
EXTT9=
EXTT10=
EXTT11=
EXTT12=
EXTT13=
EXTT14=
EXTT15=
EXTT16=
EXTT17=
EXTT18=
PLAYORDER=
